<svg width="512" height="512" viewBox="0 0 512 512" fill="none" xmlns="http://www.w3.org/2000/svg">
  <rect width="512" height="512" rx="128" fill="url(#gradient)"/>
  <defs>
    <linearGradient id="gradient" x1="0" y1="0" x2="512" y2="512" gradientUnits="userSpaceOnUse">
      <stop offset="0%" stop-color="#9333EA"/>
      <stop offset="100%" stop-color="#EC4899"/>
    </linearGradient>
  </defs>
  
  <!-- Brain Icon -->
  <path d="M256 96C211.8 96 176 131.8 176 176C176 185.9 177.9 195.4 181.3 204.1C169.4 213.6 160 228.5 160 245.3C160 271.5 181.5 293 207.7 293C214.2 293 220.4 291.7 226 289.4C226 289.6 226 289.8 226 290C226 316.5 247.5 338 274 338C283.9 338 293.1 335.1 300.9 330.1C308.7 335.1 317.9 338 327.8 338C354.3 338 375.8 316.5 375.8 290C375.8 289.8 375.8 289.6 375.8 289.4C381.4 291.7 387.6 293 394.1 293C420.3 293 441.8 271.5 441.8 245.3C441.8 228.5 432.4 213.6 420.5 204.1C423.9 195.4 425.8 185.9 425.8 176C425.8 131.8 390 96 345.8 96C328.5 96 312.4 101.5 299.1 110.9C291.3 101.9 280.1 96 267.7 96C264.5 96 261.4 96.4 258.4 97.1C257.6 96.4 256.8 96 256 96Z" fill="white"/>
  
  <!-- Target/Focus Circle -->
  <circle cx="256" cy="320" r="60" stroke="white" stroke-width="8" fill="none"/>
  <circle cx="256" cy="320" r="40" stroke="white" stroke-width="6" fill="none"/>
  <circle cx="256" cy="320" r="20" fill="white"/>
</svg>
